<svg width="400" height="400" viewBox="0 0 400 400" fill="none" xmlns="http://www.w3.org/2000/svg">
<path d="M87.5 50C73.1341 50 59.3566 55.7068 49.1984 65.865C39.0402 76.0233 33.3333 89.8008 33.3333 104.167V295.833C33.3333 310.199 39.0402 323.977 49.1984 334.135C59.3566 344.293 73.1341 350 87.5 350H312.5C319.613 350 326.657 348.599 333.229 345.877C339.8 343.155 345.772 339.165 350.802 334.135C355.831 329.105 359.821 323.134 362.543 316.562C365.266 309.99 366.667 302.947 366.667 295.833V104.167C366.667 97.0534 365.266 90.0098 362.543 83.438C359.821 76.8662 355.831 70.8949 350.802 65.865C345.772 60.8352 339.8 56.8453 333.229 54.1232C326.657 51.4011 319.613 50 312.5 50H87.5ZM150 154.167C150.001 151.27 150.756 148.424 152.191 145.909C153.627 143.394 155.693 141.296 158.186 139.822C160.679 138.348 163.513 137.55 166.409 137.505C169.305 137.46 172.162 138.171 174.7 139.567L258.033 185.4C260.651 186.837 262.833 188.952 264.354 191.521C265.874 194.091 266.677 197.022 266.677 200.008C266.677 202.994 265.874 205.925 264.354 208.495C262.833 211.065 260.651 213.179 258.033 214.617L174.7 260.45C172.161 261.847 169.302 262.557 166.405 262.512C163.508 262.466 160.672 261.666 158.179 260.191C155.685 258.715 153.619 256.615 152.185 254.097C150.751 251.579 149.998 248.731 150 245.833V154.167Z" fill="#D8494A"/>
</svg>
