<svg width="400" height="400" viewBox="0 0 400 400" fill="none" xmlns="http://www.w3.org/2000/svg">
<g clip-path="url(#clip0_64_2162)">
<path d="M200 0C226.264 0 252.272 5.17315 276.537 15.2241C300.802 25.275 322.85 40.0069 341.421 58.5786C359.993 77.1504 374.725 99.1982 384.776 123.463C394.827 147.728 400 173.736 400 200C400 253.043 378.929 303.914 341.421 341.421C303.914 378.929 253.043 400 200 400C173.736 400 147.728 394.827 123.463 384.776C99.1982 374.725 77.1504 359.993 58.5786 341.421C21.0714 303.914 0 253.043 0 200C0 146.957 21.0714 96.0859 58.5786 58.5786C96.0859 21.0714 146.957 0 200 0ZM300 280V260L280 240V187.8C280 166 274.6 146.8 264.2 130.6C254 114.4 239.2 104.2 220 100V90C220 84.6957 217.893 79.6086 214.142 75.8579C210.391 72.1071 205.304 70 200 70C194.696 70 189.609 72.1071 185.858 75.8579C182.107 79.6086 180 84.6957 180 90V100C160.8 104.2 146 114.4 135.8 130.6C125.4 146.8 120 166 120 187.8V240L100 260V280H300ZM230 300H170C170 307.956 173.161 315.587 178.787 321.213C184.413 326.839 192.044 330 200 330C207.956 330 215.587 326.839 221.213 321.213C226.839 315.587 230 307.956 230 300Z" fill="#e4e4eb"/>
</g>
<defs>
<clipPath id="clip0_64_2162">
<rect width="400" height="400" fill="white"/>
</clipPath>
</defs>
</svg>
