<svg width="400" height="400" viewBox="0 0 400 400" fill="none" xmlns="http://www.w3.org/2000/svg">
<rect width="400" height="400" rx="200" fill="#E4E4EA"/>
<path d="M315 283.571V296.429H85V283.571L110.556 257.857V180.714C110.556 140.857 136.494 105.757 174.444 94.4429V90.7143C174.444 83.8944 177.137 77.3539 181.929 72.5315C186.722 67.7092 193.222 65 200 65C206.778 65 213.278 67.7092 218.071 72.5315C222.863 77.3539 225.556 83.8944 225.556 90.7143V94.4429C263.506 105.757 289.444 140.857 289.444 180.714V257.857L315 283.571ZM225.556 309.286C225.556 316.106 222.863 322.646 218.071 327.468C213.278 332.291 206.778 335 200 335C193.222 335 186.722 332.291 181.929 327.468C177.137 322.646 174.444 316.106 174.444 309.286" fill="#878691"/>
</svg>
