<svg width="400" height="400" viewBox="0 0 400 400" fill="none" xmlns="http://www.w3.org/2000/svg">
<g clip-path="url(#clip0_64_2169)">
<path fill-rule="evenodd" clip-rule="evenodd" d="M200 0C89.54 0 0 89.54 0 200C0 310.46 89.54 400 200 400C310.46 400 400 310.46 400 200C400 89.54 310.46 0 200 0ZM130 150C130 140.807 131.811 131.705 135.328 123.212C138.846 114.719 144.002 107.003 150.503 100.503C157.003 94.0024 164.719 88.8463 173.212 85.3284C181.705 81.8106 190.807 80 200 80C209.193 80 218.295 81.8106 226.788 85.3284C235.281 88.8463 242.997 94.0024 249.497 100.503C255.998 107.003 261.154 114.719 264.672 123.212C268.189 131.705 270 140.807 270 150C270 168.565 262.625 186.37 249.497 199.497C236.37 212.625 218.565 220 200 220C181.435 220 163.63 212.625 150.503 199.497C137.375 186.37 130 168.565 130 150ZM325.16 299.68C310.189 318.512 291.156 333.719 269.483 344.164C247.811 354.609 224.058 360.022 200 360C175.942 360.022 152.189 354.609 130.517 344.164C108.844 333.719 89.8113 318.512 74.84 299.68C107.26 276.42 151.5 260 200 260C248.5 260 292.74 276.42 325.16 299.68Z" fill="#e4e4eb"/>
</g>
<defs>
<clipPath id="clip0_64_2169">
<rect width="400" height="400" fill="white"/>
</clipPath>
</defs>
</svg>
