<svg width="450" height="450" viewBox="0 0 450 450" fill="none" xmlns="http://www.w3.org/2000/svg">
<g clip-path="url(#clip0_153_2085)">
<path fill-rule="evenodd" clip-rule="evenodd" d="M225 0C100.733 0 0 100.733 0 225C0 349.267 100.733 450 225 450C349.267 450 450 349.267 450 225C450 100.733 349.267 0 225 0ZM146.25 168.75C146.25 158.408 148.287 148.168 152.244 138.614C156.202 129.059 162.003 120.378 169.315 113.065C176.628 105.753 185.309 99.952 194.864 95.9945C204.418 92.0369 214.658 90 225 90C235.342 90 245.582 92.0369 255.136 95.9945C264.691 99.952 273.372 105.753 280.685 113.065C287.997 120.378 293.798 129.059 297.756 138.614C301.713 148.168 303.75 158.408 303.75 168.75C303.75 189.636 295.453 209.666 280.685 224.435C265.916 239.203 245.886 247.5 225 247.5C204.114 247.5 184.084 239.203 169.315 224.435C154.547 209.666 146.25 189.636 146.25 168.75ZM365.805 337.14C348.962 358.327 327.551 375.434 303.169 387.185C278.787 398.935 252.066 405.025 225 405C197.934 405.025 171.213 398.935 146.831 387.185C122.449 375.434 101.038 358.327 84.195 337.14C120.668 310.972 170.438 292.5 225 292.5C279.562 292.5 329.332 310.972 365.805 337.14Z" fill="#1F4DED"/>
</g>
<defs>
<clipPath id="clip0_153_2085">
<rect width="450" height="450" fill="white"/>
</clipPath>
</defs>
</svg>
