<svg width="400" height="400" viewBox="0 0 400 400" fill="none" xmlns="http://www.w3.org/2000/svg">
<path d="M233.333 283.333H116.667V250H233.333M283.333 216.667H116.667V183.333H283.333M283.333 150H116.667V116.667H283.333M316.667 50H83.3333C64.8333 50 50 64.8333 50 83.3333V316.667C50 325.507 53.5119 333.986 59.7631 340.237C66.0143 346.488 74.4928 350 83.3333 350H316.667C325.507 350 333.986 346.488 340.237 340.237C346.488 333.986 350 325.507 350 316.667V83.3333C350 74.4928 346.488 66.0143 340.237 59.7631C333.986 53.5119 325.507 50 316.667 50Z" fill="#1F4DED"/>
</svg>
