<svg width="400" height="400" viewBox="0 0 400 400" fill="none" xmlns="http://www.w3.org/2000/svg">
<rect width="400" height="400" rx="200" fill="#E4E4EA"/>
<path d="M134.375 143.75C134.375 161.155 141.289 177.847 153.596 190.154C165.903 202.461 182.595 209.375 200 209.375C217.405 209.375 234.097 202.461 246.404 190.154C258.711 177.847 265.625 161.155 265.625 143.75C265.625 126.345 258.711 109.653 246.404 97.3461C234.097 85.039 217.405 78.125 200 78.125C182.595 78.125 165.903 85.039 153.596 97.3461C141.289 109.653 134.375 126.345 134.375 143.75ZM293.75 321.875H96.875C94.3886 321.875 92.004 320.887 90.2459 319.129C88.4877 317.371 87.5 314.986 87.5 312.5V284.375C87.5 271.943 92.4386 260.02 101.229 251.229C110.02 242.439 121.943 237.5 134.375 237.5H265.625C278.057 237.5 289.98 242.439 298.771 251.229C307.561 260.02 312.5 271.943 312.5 284.375V312.5C312.5 314.986 311.512 317.371 309.754 319.129C307.996 320.887 305.611 321.875 303.125 321.875H293.75Z" fill="#878691"/>
</svg>
