<svg width="100" height="100" viewBox="0 0 100 100" fill="none" xmlns="http://www.w3.org/2000/svg">
<g clip-path="url(#clip0_91_2485)">
<path d="M87.0833 8.33331H12.9167C11.7011 8.33331 10.5353 8.8162 9.67577 9.67574C8.81623 10.5353 8.33334 11.7011 8.33334 12.9166V87.0833C8.33334 88.2989 8.81623 89.4647 9.67577 90.3242C10.5353 91.1838 11.7011 91.6666 12.9167 91.6666H52.8333V59.375H42V46.875H52.8333V37.5C52.6089 35.299 52.8688 33.0755 53.5947 30.9856C54.3205 28.8956 55.4949 26.9898 57.0353 25.4017C58.5757 23.8136 60.4449 22.5818 62.5118 21.7926C64.5787 21.0035 66.7932 20.676 69 20.8333C72.243 20.8134 75.4845 20.9803 78.7083 21.3333V32.5833H72.0833C66.8333 32.5833 65.8333 35.0833 65.8333 38.7083V46.75H78.3333L76.7083 59.25H65.8333V91.6666H87.0833C87.6852 91.6666 88.2812 91.5481 88.8373 91.3178C89.3934 91.0874 89.8986 90.7498 90.3242 90.3242C90.7499 89.8986 91.0875 89.3933 91.3178 88.8373C91.5481 88.2812 91.6667 87.6852 91.6667 87.0833V12.9166C91.6667 12.3148 91.5481 11.7188 91.3178 11.1627C91.0875 10.6066 90.7499 10.1013 90.3242 9.67574C89.8986 9.25014 89.3934 8.91253 88.8373 8.6822C88.2812 8.45186 87.6852 8.33331 87.0833 8.33331Z" fill="#3872DD"/>
</g>
<defs>
<clipPath id="clip0_91_2485">
<rect width="100" height="100" fill="white"/>
</clipPath>
</defs>
</svg>
