<svg width="400" height="400" viewBox="0 0 400 400" fill="none" xmlns="http://www.w3.org/2000/svg">
<rect width="400" height="400" fill="#151518"/>
<path d="M119.426 145.105V142.287C119.426 97.3934 155.819 61 200.713 61V61V61C245.607 61 282 97.3934 282 142.287V211" stroke="#1F4DED" stroke-width="45"/>
<path d="M119.426 178.5L82 126L119.426 142.25L156.852 126L119.426 178.5Z" fill="#1F4DED"/>
<path d="M281.574 253.895V256.713C281.574 301.607 245.181 338 200.287 338V338V338C155.393 338 119 301.607 119 256.713L119 188" stroke="#1F4DED" stroke-width="45"/>
<path d="M281.574 220.5L319 273L281.574 256.75L244.148 273L281.574 220.5Z" fill="#1F4DED"/>
</svg>
