<svg width="1909" height="363" viewBox="0 0 1909 363" fill="none" xmlns="http://www.w3.org/2000/svg">
<g clip-path="url(#clip0_59_2064)">
<rect width="1909" height="363" fill="white"/>
<path d="M211.697 149.203H165.035C164.183 143.166 162.442 137.804 159.815 133.116C157.187 128.358 153.813 124.31 149.694 120.972C145.575 117.634 140.816 115.077 135.418 113.301C130.092 111.526 124.303 110.638 118.053 110.638C106.761 110.638 96.924 113.443 88.5433 119.054C80.1626 124.594 73.6641 132.69 69.0476 143.344C64.4311 153.926 62.1229 166.781 62.1229 181.909C62.1229 197.463 64.4311 210.531 69.0476 221.114C73.7351 231.696 80.2692 239.686 88.6499 245.084C97.0305 250.482 106.725 253.18 117.734 253.18C123.913 253.18 129.63 252.364 134.886 250.73C140.212 249.097 144.935 246.717 149.055 243.592C153.174 240.396 156.583 236.526 159.282 231.98C162.052 227.435 163.969 222.25 165.035 216.426L211.697 216.639C210.489 226.653 207.471 236.312 202.641 245.616C197.883 254.849 191.455 263.124 183.359 270.439C175.333 277.683 165.745 283.436 154.594 287.697C143.515 291.888 130.979 293.983 116.988 293.983C97.5277 293.983 80.1271 289.58 64.7862 280.773C49.5163 271.966 37.4425 259.217 28.5646 242.527C19.7578 225.837 15.3544 205.631 15.3544 181.909C15.3544 158.116 19.8288 137.875 28.7777 121.185C37.7266 104.494 49.8715 91.7812 65.2124 83.0455C80.5533 74.2386 97.8118 69.8352 116.988 69.8352C129.63 69.8352 141.349 71.6108 152.144 75.1619C163.011 78.7131 172.634 83.8977 181.015 90.7159C189.396 97.4631 196.214 105.737 201.469 115.538C206.796 125.339 210.205 136.561 211.697 149.203ZM243.923 291V127.364H287.922V155.915H289.626C292.609 145.759 297.616 138.088 304.648 132.903C311.679 127.648 319.776 125.02 328.938 125.02C331.21 125.02 333.661 125.162 336.288 125.446C338.916 125.73 341.224 126.121 343.213 126.618V166.888C341.082 166.249 338.135 165.68 334.371 165.183C330.607 164.686 327.162 164.438 324.037 164.438C317.361 164.438 311.395 165.893 306.139 168.805C300.955 171.646 296.835 175.624 293.781 180.737C290.798 185.851 289.307 191.746 289.307 198.422V291H243.923ZM399.676 352.364C393.923 352.364 388.526 351.902 383.483 350.979C378.511 350.126 374.392 349.026 371.125 347.676L381.352 313.798C386.679 315.432 391.473 316.32 395.734 316.462C400.067 316.604 403.795 315.609 406.92 313.479C410.116 311.348 412.709 307.726 414.697 302.612L417.361 295.688L358.661 127.364H406.388L440.266 247.534H441.97L476.168 127.364H524.214L460.614 308.685C457.56 317.491 453.405 325.162 448.149 331.696C442.964 338.301 436.395 343.379 428.44 346.93C420.486 350.553 410.898 352.364 399.676 352.364ZM547.439 352.364V127.364H592.183V154.849H594.207C596.196 150.446 599.072 145.972 602.837 141.426C606.672 136.81 611.643 132.974 617.751 129.92C623.93 126.795 631.601 125.233 640.763 125.233C652.695 125.233 663.703 128.358 673.788 134.608C683.874 140.787 691.935 150.126 697.972 162.626C704.009 175.055 707.027 190.645 707.027 209.395C707.027 227.648 704.08 243.06 698.185 255.631C692.361 268.131 684.406 277.612 674.321 284.075C664.307 290.467 653.085 293.663 640.656 293.663C631.849 293.663 624.357 292.207 618.178 289.295C612.07 286.384 607.062 282.726 603.156 278.322C599.25 273.848 596.267 269.338 594.207 264.793H592.822V352.364H547.439ZM591.864 209.182C591.864 218.912 593.213 227.399 595.912 234.643C598.611 241.888 602.517 247.534 607.631 251.582C612.744 255.56 618.959 257.548 626.274 257.548C633.661 257.548 639.911 255.524 645.024 251.476C650.138 247.357 654.009 241.675 656.636 234.43C659.335 227.115 660.685 218.699 660.685 209.182C660.685 199.736 659.371 191.426 656.743 184.253C654.115 177.08 650.244 171.469 645.131 167.42C640.017 163.372 633.732 161.348 626.274 161.348C618.888 161.348 612.638 163.301 607.524 167.207C602.482 171.114 598.611 176.653 595.912 183.827C593.213 191 591.864 199.452 591.864 209.182ZM824.321 127.364V161.455H725.777V127.364H824.321ZM748.149 88.1591H793.533V240.716C793.533 244.906 794.172 248.173 795.45 250.517C796.729 252.79 798.504 254.388 800.777 255.311C803.121 256.234 805.82 256.696 808.874 256.696C811.004 256.696 813.135 256.518 815.266 256.163C817.396 255.737 819.03 255.418 820.166 255.205L827.304 288.976C825.031 289.686 821.835 290.503 817.716 291.426C813.597 292.42 808.589 293.024 802.695 293.237C791.757 293.663 782.169 292.207 773.93 288.869C765.763 285.531 759.406 280.347 754.861 273.315C750.315 266.284 748.078 257.406 748.149 246.682V88.1591Z" fill="black"/>
<path d="M1091.19 352.364V127.364H1135.94V154.849H1137.96C1139.95 150.446 1142.82 145.972 1146.59 141.426C1150.42 136.81 1155.4 132.974 1161.5 129.92C1167.68 126.795 1175.35 125.233 1184.51 125.233C1196.45 125.233 1207.46 128.358 1217.54 134.608C1227.63 140.787 1235.69 150.126 1241.72 162.626C1247.76 175.055 1250.78 190.645 1250.78 209.395C1250.78 227.648 1247.83 243.06 1241.94 255.631C1236.11 268.131 1228.16 277.612 1218.07 284.075C1208.06 290.467 1196.84 293.663 1184.41 293.663C1175.6 293.663 1168.11 292.207 1161.93 289.295C1155.82 286.384 1150.81 282.726 1146.91 278.322C1143 273.848 1140.02 269.338 1137.96 264.793H1136.57V352.364H1091.19ZM1135.62 209.182C1135.62 218.912 1136.97 227.399 1139.66 234.643C1142.36 241.888 1146.27 247.534 1151.38 251.582C1156.5 255.56 1162.71 257.548 1170.03 257.548C1177.41 257.548 1183.66 255.524 1188.78 251.476C1193.89 247.357 1197.76 241.675 1200.39 234.43C1203.09 227.115 1204.44 218.699 1204.44 209.182C1204.44 199.736 1203.12 191.426 1200.49 184.253C1197.87 177.08 1194 171.469 1188.88 167.42C1183.77 163.372 1177.48 161.348 1170.03 161.348C1162.64 161.348 1156.39 163.301 1151.28 167.207C1146.23 171.114 1142.36 176.653 1139.66 183.827C1136.97 191 1135.62 199.452 1135.62 209.182ZM1368.07 127.364V161.455H1269.53V127.364H1368.07ZM1291.9 88.1591H1337.28V240.716C1337.28 244.906 1337.92 248.173 1339.2 250.517C1340.48 252.79 1342.26 254.388 1344.53 255.311C1346.87 256.234 1349.57 256.696 1352.63 256.696C1354.76 256.696 1356.89 256.518 1359.02 256.163C1361.15 255.737 1362.78 255.418 1363.92 255.205L1371.06 288.976C1368.78 289.686 1365.59 290.503 1361.47 291.426C1357.35 292.42 1352.34 293.024 1346.45 293.237C1335.51 293.663 1325.92 292.207 1317.68 288.869C1309.51 285.531 1303.16 280.347 1298.61 273.315C1294.07 266.284 1291.83 257.406 1291.9 246.682V88.1591ZM1397.64 291V127.364H1443.02V291H1397.64ZM1420.43 106.27C1413.69 106.27 1407.9 104.033 1403.07 99.5582C1398.31 95.0128 1395.93 89.5795 1395.93 83.2585C1395.93 77.0085 1398.31 71.6463 1403.07 67.1719C1407.9 62.6264 1413.69 60.3537 1420.43 60.3537C1427.18 60.3537 1432.93 62.6264 1437.69 67.1719C1442.52 71.6463 1444.94 77.0085 1444.94 83.2585C1444.94 89.5795 1442.52 95.0128 1437.69 99.5582C1432.93 104.033 1427.18 106.27 1420.43 106.27ZM1479.37 291V127.364H1522.63V156.234H1524.54C1527.95 146.646 1533.64 139.082 1541.59 133.543C1549.54 128.003 1559.06 125.233 1570.14 125.233C1581.36 125.233 1590.92 128.038 1598.8 133.649C1606.68 139.189 1611.94 146.717 1614.57 156.234H1616.27C1619.61 146.859 1625.65 139.366 1634.38 133.756C1643.19 128.074 1653.59 125.233 1665.6 125.233C1680.87 125.233 1693.26 130.098 1702.78 139.828C1712.36 149.487 1717.16 163.195 1717.16 180.95V291H1671.88V189.899C1671.88 180.808 1669.47 173.99 1664.64 169.445C1659.81 164.899 1653.77 162.626 1646.53 162.626C1638.29 162.626 1631.86 165.254 1627.24 170.51C1622.63 175.695 1620.32 182.548 1620.32 191.071V291H1576.32V188.94C1576.32 180.915 1574.01 174.523 1569.4 169.764C1564.85 165.006 1558.85 162.626 1551.39 162.626C1546.35 162.626 1541.8 163.905 1537.76 166.462C1533.78 168.947 1530.62 172.463 1528.27 177.009C1525.93 181.483 1524.76 186.739 1524.76 192.776V291H1479.37ZM1799.67 294.089C1789.23 294.089 1779.92 292.278 1771.76 288.656C1763.59 284.963 1757.13 279.53 1752.37 272.357C1747.68 265.112 1745.34 256.092 1745.34 245.297C1745.34 236.206 1747.01 228.571 1750.34 222.392C1753.68 216.213 1758.23 211.241 1763.98 207.477C1769.73 203.713 1776.27 200.872 1783.58 198.955C1790.97 197.037 1798.71 195.688 1806.81 194.906C1816.32 193.912 1823.99 192.989 1829.82 192.136C1835.64 191.213 1839.87 189.864 1842.5 188.088C1845.12 186.312 1846.44 183.685 1846.44 180.205V179.565C1846.44 172.818 1844.31 167.598 1840.05 163.905C1835.86 160.212 1829.89 158.365 1822.15 158.365C1813.98 158.365 1807.48 160.176 1802.65 163.798C1797.82 167.349 1794.63 171.824 1793.06 177.222L1751.09 173.812C1753.22 163.869 1757.41 155.276 1763.66 148.031C1769.91 140.716 1777.97 135.105 1787.84 131.199C1797.79 127.222 1809.29 125.233 1822.36 125.233C1831.45 125.233 1840.15 126.298 1848.46 128.429C1856.84 130.56 1864.26 133.862 1870.73 138.337C1877.26 142.811 1882.41 148.564 1886.17 155.595C1889.94 162.555 1891.82 170.901 1891.82 180.631V291H1848.78V268.308H1847.5C1844.88 273.422 1841.36 277.932 1836.96 281.838C1832.55 285.673 1827.26 288.692 1821.08 290.893C1814.9 293.024 1807.77 294.089 1799.67 294.089ZM1812.67 262.768C1819.34 262.768 1825.24 261.455 1830.35 258.827C1835.46 256.128 1839.48 252.506 1842.39 247.96C1845.3 243.415 1846.76 238.266 1846.76 232.513V215.148C1845.34 216.071 1843.38 216.923 1840.9 217.705C1838.48 218.415 1835.75 219.089 1832.69 219.729C1829.64 220.297 1826.59 220.83 1823.53 221.327C1820.48 221.753 1817.71 222.143 1815.22 222.499C1809.9 223.28 1805.24 224.523 1801.27 226.227C1797.29 227.932 1794.2 230.24 1792 233.152C1789.8 235.993 1788.7 239.544 1788.7 243.805C1788.7 249.984 1790.93 254.707 1795.41 257.974C1799.95 261.17 1805.71 262.768 1812.67 262.768Z" fill="black"/>
<path d="M873.426 127.105V124.287C873.426 79.3934 909.819 43 954.713 43V43V43C999.607 43 1036 79.3934 1036 124.287V193" stroke="#1F4DED" stroke-width="45"/>
<path d="M873.426 160.5L836 108L873.426 124.25L910.852 108L873.426 160.5Z" fill="#1F4DED"/>
<path d="M1035.57 235.895V238.713C1035.57 283.607 999.181 320 954.287 320V320V320C909.393 320 873 283.607 873 238.713V170" stroke="#1F4DED" stroke-width="45"/>
<path d="M1035.57 202.5L1073 255L1035.57 238.75L998.148 255L1035.57 202.5Z" fill="#1F4DED"/>
</g>
<defs>
<clipPath id="clip0_59_2064">
<rect width="1909" height="363" fill="white"/>
</clipPath>
</defs>
</svg>
