<svg width="100" height="100" viewBox="0 0 100 100" fill="none" xmlns="http://www.w3.org/2000/svg">
<g clip-path="url(#clip0_91_2484)">
<path d="M95 21.6042C91.6874 23.1099 88.1166 24.0994 84.4168 24.5727C88.2027 22.2925 91.1281 18.6788 92.5048 14.3337C88.934 16.4847 84.9761 17.9904 80.8031 18.8509C77.4044 15.1511 72.6291 13 67.2084 13C57.0985 13 48.8384 21.26 48.8384 31.456C48.8384 32.9187 49.0105 34.3384 49.3117 35.6721C33.9962 34.8977 20.3585 27.5411 11.2811 16.3987C9.68929 19.109 8.78585 22.2925 8.78585 25.6482C8.78585 32.0583 12.0124 37.7371 17.0029 40.9637C13.9484 40.9637 11.109 40.1033 8.61377 38.8126V38.9417C8.61377 47.8901 14.9809 55.3757 23.413 57.0535C20.7058 57.7944 17.8637 57.8975 15.1099 57.3547C16.2784 61.0221 18.5668 64.2312 21.6535 66.5308C24.7402 68.8303 28.4699 70.1048 32.3184 70.175C25.7948 75.3394 17.7084 78.1309 9.38815 78.0908C7.92543 78.0908 6.46272 78.0048 5 77.8327C13.174 83.0813 22.8967 86.1358 33.3078 86.1358C67.2084 86.1358 85.8365 58 85.8365 33.6071C85.8365 32.7897 85.8365 32.0153 85.7935 31.1979C89.4073 28.6166 92.5048 25.347 95 21.6042Z" fill="#4A99E9"/>
</g>
<defs>
<clipPath id="clip0_91_2484">
<rect width="100" height="100" fill="white"/>
</clipPath>
</defs>
</svg>
