<svg width="100" height="100" viewBox="0 0 100 100" fill="none" xmlns="http://www.w3.org/2000/svg">
<g clip-path="url(#clip0_91_2488)">
<g clip-path="url(#clip1_91_2488)">
<path d="M99.3437 29.0605C99.3437 20.2715 92.8789 13.2012 84.8906 13.2012C74.0703 12.6953 63.0352 12.5 51.7578 12.5H48.2422C36.9922 12.5 25.9375 12.6953 15.1172 13.2031C7.14844 13.2031 0.683591 20.3125 0.683591 29.1016C0.19531 36.0527 -0.0117212 43.0059 -2.4746e-06 49.959C-0.0195337 56.9121 0.20182 63.8717 0.66406 70.8379C0.66406 79.627 7.1289 86.7559 15.0977 86.7559C26.4648 87.2832 38.125 87.5176 49.9805 87.498C61.8555 87.5371 73.4831 87.2897 84.8633 86.7559C92.8516 86.7559 99.3164 79.627 99.3164 70.8379C99.7852 63.8652 100 56.9121 99.9805 49.9395C100.025 42.9863 99.8125 36.0267 99.3437 29.0605ZM40.4297 69.1191V30.7402L68.75 49.9199L40.4297 69.1191Z" fill="#EA3323"/>
</g>
</g>
<defs>
<clipPath id="clip0_91_2488">
<rect width="100" height="100" fill="white"/>
</clipPath>
<clipPath id="clip1_91_2488">
<rect width="100" height="100" fill="white"/>
</clipPath>
</defs>
</svg>
