<svg width="500" height="500" viewBox="0 0 500 500" fill="none" xmlns="http://www.w3.org/2000/svg">
<path fill-rule="evenodd" clip-rule="evenodd" d="M108.894 44H396.889C403.761 44 410.109 47.6761 413.536 53.64L497.441 199.654C501.792 207.226 500.499 216.783 494.293 222.924L263.343 451.418C255.861 458.82 243.827 458.82 236.345 451.418L5.70727 223.233C-0.643357 216.95 -1.83255 207.114 2.8374 199.494L92.5249 53.1715C96.0179 47.4729 102.216 44 108.894 44ZM359.704 109.19V150.16H277.665V178.565C335.284 181.601 378.513 194.068 378.834 209.011L378.832 240.164C378.511 255.107 335.284 267.574 277.665 270.61V340.319H223.191V270.61C165.572 267.574 122.344 255.107 122.024 240.164L122.025 209.011C122.346 194.068 165.572 181.601 223.191 178.565V150.16H141.153V109.19H359.704ZM250.429 249.208C311.917 249.208 363.311 238.666 375.889 224.588C365.223 212.649 326.643 203.253 277.665 200.673V230.414C268.888 230.876 259.774 231.12 250.429 231.12C241.082 231.12 231.97 230.876 223.191 230.414V200.673C174.213 203.253 135.633 212.649 124.968 224.588C137.545 238.666 188.939 249.208 250.429 249.208Z" fill="#009393"/>
</svg>
